<?xml version="1.0" encoding="UTF-8"?>
<svg width="42" height="130" viewBox="0 0 42 130" xmlns="http://www.w3.org/2000/svg" xmlns:xlink="http://www.w3.org/1999/xlink" xml:space="preserve" version="1.1"  baseProfile="full">
 <g id="mainlayer" font-size="10" style="font-family: monospace">
<rect style="fill:#000" x="0" y="0" width="6" height="10"/>
<rect style="fill:#000" x="6" y="0" width="6" height="10"/>
<rect style="fill:#000" x="12" y="0" width="6" height="10"/>
<rect style="fill:#a50" x="18" y="0" width="6" height="10"/>
<rect style="fill:#000" x="24" y="0" width="6" height="10"/>
<rect style="fill:#000" x="30" y="0" width="6" height="10"/>
<rect style="fill:#000" x="36" y="0" width="6" height="10"/>
<rect style="fill:#000" x="0" y="10" width="6" height="10"/>
<rect style="fill:#000" x="6" y="10" width="6" height="10"/>
<rect style="fill:#a50" x="12" y="10" width="6" height="10"/>
<rect style="fill:#f55" x="18" y="10" width="6" height="10"/>
<rect style="fill:#f55" x="24" y="10" width="6" height="10"/>
<rect style="fill:#000" x="30" y="10" width="6" height="10"/>
<rect style="fill:#000" x="36" y="10" width="6" height="10"/>
<rect style="fill:#000" x="0" y="20" width="6" height="10"/>
<rect style="fill:#000" x="6" y="20" width="6" height="10"/>
<rect style="fill:#a00" x="12" y="20" width="6" height="10"/>
<rect style="fill:#f55" x="18" y="20" width="6" height="10"/>
<rect style="fill:#f55" x="24" y="20" width="6" height="10"/>
<rect style="fill:#000" x="30" y="20" width="6" height="10"/>
<rect style="fill:#000" x="36" y="20" width="6" height="10"/>
<rect style="fill:#000" x="0" y="30" width="6" height="10"/>
<rect style="fill:#000" x="6" y="30" width="6" height="10"/>
<rect style="fill:#a50" x="12" y="30" width="6" height="10"/>
<rect style="fill:#f55" x="18" y="30" width="6" height="10"/>
<rect style="fill:#f55" x="24" y="30" width="6" height="10"/>
<rect style="fill:#000" x="30" y="30" width="6" height="10"/>
<rect style="fill:#000" x="36" y="30" width="6" height="10"/>
<rect style="fill:#000" x="0" y="40" width="6" height="10"/>
<rect style="fill:#000" x="6" y="40" width="6" height="10"/>
<rect style="fill:#a00" x="12" y="40" width="6" height="10"/>
<rect style="fill:#f55" x="18" y="40" width="6" height="10"/>
<rect style="fill:#f55" x="24" y="40" width="6" height="10"/>
<rect style="fill:#000" x="30" y="40" width="6" height="10"/>
<rect style="fill:#000" x="36" y="40" width="6" height="10"/>
<rect style="fill:#000" x="0" y="50" width="6" height="10"/>
<rect style="fill:#000" x="6" y="50" width="6" height="10"/>
<rect style="fill:#a50" x="12" y="50" width="6" height="10"/>
<rect style="fill:#f55" x="18" y="50" width="6" height="10"/>
<rect style="fill:#f55" x="24" y="50" width="6" height="10"/>
<rect style="fill:#000" x="30" y="50" width="6" height="10"/>
<rect style="fill:#000" x="36" y="50" width="6" height="10"/>
<rect style="fill:#000" x="0" y="60" width="6" height="10"/>
<rect style="fill:#000" x="6" y="60" width="6" height="10"/>
<rect style="fill:#a00" x="12" y="60" width="6" height="10"/>
<rect style="fill:#f55" x="18" y="60" width="6" height="10"/>
<rect style="fill:#f55" x="24" y="60" width="6" height="10"/>
<rect style="fill:#000" x="30" y="60" width="6" height="10"/>
<rect style="fill:#000" x="36" y="60" width="6" height="10"/>
<rect style="fill:#000" x="0" y="70" width="6" height="10"/>
<rect style="fill:#000" x="6" y="70" width="6" height="10"/>
<rect style="fill:#a50" x="12" y="70" width="6" height="10"/>
<rect style="fill:#f55" x="18" y="70" width="6" height="10"/>
<rect style="fill:#f55" x="24" y="70" width="6" height="10"/>
<rect style="fill:#000" x="30" y="70" width="6" height="10"/>
<rect style="fill:#000" x="36" y="70" width="6" height="10"/>
<rect style="fill:#000" x="0" y="80" width="6" height="10"/>
<rect style="fill:#000" x="6" y="80" width="6" height="10"/>
<rect style="fill:#a00" x="12" y="80" width="6" height="10"/>
<rect style="fill:#f55" x="18" y="80" width="6" height="10"/>
<rect style="fill:#f55" x="24" y="80" width="6" height="10"/>
<rect style="fill:#000" x="30" y="80" width="6" height="10"/>
<rect style="fill:#000" x="36" y="80" width="6" height="10"/>
<rect style="fill:#ff5" x="0" y="90" width="6" height="10"/>
<rect style="fill:#a50" x="6" y="90" width="6" height="10"/>
<rect style="fill:#ff5" x="12" y="90" width="6" height="10"/>
<rect style="fill:#ff5" x="18" y="90" width="6" height="10"/>
<rect style="fill:#ff5" x="24" y="90" width="6" height="10"/>
<rect style="fill:#a50" x="30" y="90" width="6" height="10"/>
<rect style="fill:#ff5" x="36" y="90" width="6" height="10"/>
<rect style="fill:#a50" x="0" y="100" width="6" height="10"/>
<rect style="fill:#555" x="6" y="100" width="6" height="10"/>
<rect style="fill:#a50" x="12" y="100" width="6" height="10"/>
<rect style="fill:#ff5" x="18" y="100" width="6" height="10"/>
<rect style="fill:#a50" x="24" y="100" width="6" height="10"/>
<rect style="fill:#000" x="30" y="100" width="6" height="10"/>
<rect style="fill:#a50" x="36" y="100" width="6" height="10"/>
<rect style="fill:#000" x="0" y="110" width="6" height="10"/>
<rect style="fill:#000" x="6" y="110" width="6" height="10"/>
<rect style="fill:#a50" x="12" y="110" width="6" height="10"/>
<rect style="fill:#ff5" x="18" y="110" width="6" height="10"/>
<rect style="fill:#ff5" x="24" y="110" width="6" height="10"/>
<rect style="fill:#000" x="30" y="110" width="6" height="10"/>
<rect style="fill:#000" x="36" y="110" width="6" height="10"/>
<rect style="fill:#000" x="0" y="120" width="6" height="10"/>
<rect style="fill:#000" x="6" y="120" width="6" height="10"/>
<rect style="fill:#a50" x="12" y="120" width="6" height="10"/>
<rect style="fill:#ff5" x="18" y="120" width="6" height="10"/>
<rect style="fill:#a50" x="24" y="120" width="6" height="10"/>
<rect style="fill:#000" x="30" y="120" width="6" height="10"/>
<rect style="fill:#000" x="36" y="120" width="6" height="10"/>
<text style="fill:#a00" x="18" y="8">8</text>
<text style="fill:#00a" x="0" y="18">;</text>
<text style="fill:#a00" x="12" y="18">X</text>
<text style="fill:#a50" x="18" y="18">S</text>
<text style="fill:#a50" x="24" y="18">:</text>
<text style="fill:#555" x="36" y="18">S</text>
<text style="fill:#00a" x="6" y="28">:</text>
<text style="fill:#a50" x="12" y="28">%</text>
<text style="fill:#a50" x="18" y="28">t</text>
<text style="fill:#a50" x="24" y="28">@</text>
<text style="fill:#00a" x="30" y="28">:</text>
<text style="fill:#555" x="0" y="38">X</text>
<text style="fill:#a00" x="12" y="38">@</text>
<text style="fill:#a50" x="18" y="38">X</text>
<text style="fill:#00a" x="36" y="38">;</text>
<text style="fill:#a50" x="12" y="48">S</text>
<text style="fill:#a50" x="18" y="48">t</text>
<text style="fill:#a00" x="24" y="48">8</text>
<text style="fill:#00a" x="0" y="58">;</text>
<text style="fill:#a00" x="12" y="58">X</text>
<text style="fill:#a50" x="18" y="58">S</text>
<text style="fill:#a50" x="24" y="58">:</text>
<text style="fill:#555" x="36" y="58">S</text>
<text style="fill:#00a" x="6" y="68">:</text>
<text style="fill:#a50" x="12" y="68">%</text>
<text style="fill:#a50" x="18" y="68">t</text>
<text style="fill:#a50" x="24" y="68">@</text>
<text style="fill:#00a" x="30" y="68">:</text>
<text style="fill:#555" x="0" y="78">X</text>
<text style="fill:#a00" x="12" y="78">@</text>
<text style="fill:#a50" x="18" y="78">X</text>
<text style="fill:#00a" x="36" y="78">;</text>
<text style="fill:#a50" x="12" y="88">S</text>
<text style="fill:#a50" x="18" y="88">t</text>
<text style="fill:#a00" x="24" y="88">8</text>
<text style="fill:#ff5" x="6" y="98">;</text>
<text style="fill:#aaa" x="12" y="98">S</text>
<text style="fill:#a50" x="18" y="98">S</text>
<text style="fill:#aaa" x="24" y="98">S</text>
<text style="fill:#aaa" x="36" y="98">S</text>
<text style="fill:#0a0" x="6" y="108">X</text>
<text style="fill:#555" x="12" y="108">:</text>
<text style="fill:#aaa" x="18" y="108">@</text>
<text style="fill:#ff5" x="24" y="108">S</text>
<text style="fill:#00a" x="30" y="108">:</text>
<text style="fill:#0a0" x="36" y="108">;</text>
<text style="fill:#555" x="0" y="118">X</text>
<text style="fill:#555" x="12" y="118">8</text>
<text style="fill:#a50" x="18" y="118">X</text>
<text style="fill:#aaa" x="24" y="118">8</text>
<text style="fill:#00a" x="36" y="118">;</text>
<text style="fill:#a50" x="18" y="128">;</text>
<text style="fill:#ff5" x="24" y="128">X</text>
 </g>
</svg>
