<?xml version="1.0" encoding="UTF-8"?>
<svg width="150" height="50" viewBox="0 0 150 50" xmlns="http://www.w3.org/2000/svg" xmlns:xlink="http://www.w3.org/1999/xlink" xml:space="preserve" version="1.1"  baseProfile="full">
 <g id="mainlayer" font-size="10" style="font-family: monospace">
<rect style="fill:#000" x="0" y="0" width="6" height="10"/>
<rect style="fill:#000" x="6" y="0" width="6" height="10"/>
<rect style="fill:#000" x="12" y="0" width="6" height="10"/>
<rect style="fill:#000" x="18" y="0" width="6" height="10"/>
<rect style="fill:#000" x="24" y="0" width="6" height="10"/>
<rect style="fill:#000" x="30" y="0" width="6" height="10"/>
<rect style="fill:#000" x="36" y="0" width="6" height="10"/>
<rect style="fill:#000" x="42" y="0" width="6" height="10"/>
<rect style="fill:#000" x="48" y="0" width="6" height="10"/>
<rect style="fill:#000" x="54" y="0" width="6" height="10"/>
<rect style="fill:#000" x="60" y="0" width="6" height="10"/>
<rect style="fill:#000" x="66" y="0" width="6" height="10"/>
<rect style="fill:#000" x="72" y="0" width="6" height="10"/>
<rect style="fill:#000" x="78" y="0" width="6" height="10"/>
<rect style="fill:#000" x="84" y="0" width="6" height="10"/>
<rect style="fill:#000" x="90" y="0" width="6" height="10"/>
<rect style="fill:#000" x="96" y="0" width="6" height="10"/>
<rect style="fill:#a50" x="102" y="0" width="6" height="10"/>
<rect style="fill:#ff5" x="108" y="0" width="6" height="10"/>
<rect style="fill:#a50" x="114" y="0" width="6" height="10"/>
<rect style="fill:#000" x="120" y="0" width="6" height="10"/>
<rect style="fill:#000" x="126" y="0" width="6" height="10"/>
<rect style="fill:#000" x="132" y="0" width="6" height="10"/>
<rect style="fill:#000" x="138" y="0" width="6" height="10"/>
<rect style="fill:#000" x="144" y="0" width="6" height="10"/>
<rect style="fill:#000" x="0" y="10" width="6" height="10"/>
<rect style="fill:#000" x="6" y="10" width="6" height="10"/>
<rect style="fill:#a50" x="12" y="10" width="6" height="10"/>
<rect style="fill:#a00" x="18" y="10" width="6" height="10"/>
<rect style="fill:#a00" x="24" y="10" width="6" height="10"/>
<rect style="fill:#a00" x="30" y="10" width="6" height="10"/>
<rect style="fill:#a50" x="36" y="10" width="6" height="10"/>
<rect style="fill:#a00" x="42" y="10" width="6" height="10"/>
<rect style="fill:#a00" x="48" y="10" width="6" height="10"/>
<rect style="fill:#a00" x="54" y="10" width="6" height="10"/>
<rect style="fill:#a50" x="60" y="10" width="6" height="10"/>
<rect style="fill:#a00" x="66" y="10" width="6" height="10"/>
<rect style="fill:#a00" x="72" y="10" width="6" height="10"/>
<rect style="fill:#a00" x="78" y="10" width="6" height="10"/>
<rect style="fill:#a50" x="84" y="10" width="6" height="10"/>
<rect style="fill:#a00" x="90" y="10" width="6" height="10"/>
<rect style="fill:#a00" x="96" y="10" width="6" height="10"/>
<rect style="fill:#a50" x="102" y="10" width="6" height="10"/>
<rect style="fill:#ff5" x="108" y="10" width="6" height="10"/>
<rect style="fill:#a50" x="114" y="10" width="6" height="10"/>
<rect style="fill:#a50" x="120" y="10" width="6" height="10"/>
<rect style="fill:#a50" x="126" y="10" width="6" height="10"/>
<rect style="fill:#a50" x="132" y="10" width="6" height="10"/>
<rect style="fill:#a50" x="138" y="10" width="6" height="10"/>
<rect style="fill:#a50" x="144" y="10" width="6" height="10"/>
<rect style="fill:#a00" x="0" y="20" width="6" height="10"/>
<rect style="fill:#a00" x="6" y="20" width="6" height="10"/>
<rect style="fill:#f55" x="12" y="20" width="6" height="10"/>
<rect style="fill:#f55" x="18" y="20" width="6" height="10"/>
<rect style="fill:#f55" x="24" y="20" width="6" height="10"/>
<rect style="fill:#f55" x="30" y="20" width="6" height="10"/>
<rect style="fill:#f55" x="36" y="20" width="6" height="10"/>
<rect style="fill:#f55" x="42" y="20" width="6" height="10"/>
<rect style="fill:#f55" x="48" y="20" width="6" height="10"/>
<rect style="fill:#f55" x="54" y="20" width="6" height="10"/>
<rect style="fill:#f55" x="60" y="20" width="6" height="10"/>
<rect style="fill:#f55" x="66" y="20" width="6" height="10"/>
<rect style="fill:#f55" x="72" y="20" width="6" height="10"/>
<rect style="fill:#f55" x="78" y="20" width="6" height="10"/>
<rect style="fill:#f55" x="84" y="20" width="6" height="10"/>
<rect style="fill:#f55" x="90" y="20" width="6" height="10"/>
<rect style="fill:#f55" x="96" y="20" width="6" height="10"/>
<rect style="fill:#ff5" x="102" y="20" width="6" height="10"/>
<rect style="fill:#a50" x="108" y="20" width="6" height="10"/>
<rect style="fill:#ff5" x="114" y="20" width="6" height="10"/>
<rect style="fill:#a50" x="120" y="20" width="6" height="10"/>
<rect style="fill:#ff5" x="126" y="20" width="6" height="10"/>
<rect style="fill:#a50" x="132" y="20" width="6" height="10"/>
<rect style="fill:#ff5" x="138" y="20" width="6" height="10"/>
<rect style="fill:#ff5" x="144" y="20" width="6" height="10"/>
<rect style="fill:#000" x="0" y="30" width="6" height="10"/>
<rect style="fill:#000" x="6" y="30" width="6" height="10"/>
<rect style="fill:#a50" x="12" y="30" width="6" height="10"/>
<rect style="fill:#a00" x="18" y="30" width="6" height="10"/>
<rect style="fill:#a50" x="24" y="30" width="6" height="10"/>
<rect style="fill:#a00" x="30" y="30" width="6" height="10"/>
<rect style="fill:#a50" x="36" y="30" width="6" height="10"/>
<rect style="fill:#a00" x="42" y="30" width="6" height="10"/>
<rect style="fill:#a50" x="48" y="30" width="6" height="10"/>
<rect style="fill:#a00" x="54" y="30" width="6" height="10"/>
<rect style="fill:#a50" x="60" y="30" width="6" height="10"/>
<rect style="fill:#a00" x="66" y="30" width="6" height="10"/>
<rect style="fill:#a50" x="72" y="30" width="6" height="10"/>
<rect style="fill:#a00" x="78" y="30" width="6" height="10"/>
<rect style="fill:#a50" x="84" y="30" width="6" height="10"/>
<rect style="fill:#a00" x="90" y="30" width="6" height="10"/>
<rect style="fill:#a50" x="96" y="30" width="6" height="10"/>
<rect style="fill:#a50" x="102" y="30" width="6" height="10"/>
<rect style="fill:#ff5" x="108" y="30" width="6" height="10"/>
<rect style="fill:#a50" x="114" y="30" width="6" height="10"/>
<rect style="fill:#a50" x="120" y="30" width="6" height="10"/>
<rect style="fill:#a50" x="126" y="30" width="6" height="10"/>
<rect style="fill:#a50" x="132" y="30" width="6" height="10"/>
<rect style="fill:#a50" x="138" y="30" width="6" height="10"/>
<rect style="fill:#a50" x="144" y="30" width="6" height="10"/>
<rect style="fill:#000" x="0" y="40" width="6" height="10"/>
<rect style="fill:#000" x="6" y="40" width="6" height="10"/>
<rect style="fill:#000" x="12" y="40" width="6" height="10"/>
<rect style="fill:#000" x="18" y="40" width="6" height="10"/>
<rect style="fill:#000" x="24" y="40" width="6" height="10"/>
<rect style="fill:#000" x="30" y="40" width="6" height="10"/>
<rect style="fill:#000" x="36" y="40" width="6" height="10"/>
<rect style="fill:#000" x="42" y="40" width="6" height="10"/>
<rect style="fill:#000" x="48" y="40" width="6" height="10"/>
<rect style="fill:#000" x="54" y="40" width="6" height="10"/>
<rect style="fill:#000" x="60" y="40" width="6" height="10"/>
<rect style="fill:#000" x="66" y="40" width="6" height="10"/>
<rect style="fill:#000" x="72" y="40" width="6" height="10"/>
<rect style="fill:#000" x="78" y="40" width="6" height="10"/>
<rect style="fill:#000" x="84" y="40" width="6" height="10"/>
<rect style="fill:#000" x="90" y="40" width="6" height="10"/>
<rect style="fill:#000" x="96" y="40" width="6" height="10"/>
<rect style="fill:#a50" x="102" y="40" width="6" height="10"/>
<rect style="fill:#ff5" x="108" y="40" width="6" height="10"/>
<rect style="fill:#a50" x="114" y="40" width="6" height="10"/>
<rect style="fill:#000" x="120" y="40" width="6" height="10"/>
<rect style="fill:#000" x="126" y="40" width="6" height="10"/>
<rect style="fill:#000" x="132" y="40" width="6" height="10"/>
<rect style="fill:#000" x="138" y="40" width="6" height="10"/>
<rect style="fill:#000" x="144" y="40" width="6" height="10"/>
<text style="fill:#00a" x="18" y="8">.</text>
<text style="fill:#00a" x="42" y="8">.</text>
<text style="fill:#00a" x="66" y="8">.</text>
<text style="fill:#00a" x="90" y="8">.</text>
<text style="fill:#555" x="102" y="8">;</text>
<text style="fill:#a50" x="108" y="8">S</text>
<text style="fill:#ff5" x="114" y="8">;</text>
<text style="fill:#0a0" x="120" y="8">8</text>
<text style="fill:#00a" x="138" y="8">.</text>
<text style="fill:#00a" x="0" y="18">;</text>
<text style="fill:#555" x="12" y="18">@</text>
<text style="fill:#a50" x="18" y="18">S</text>
<text style="fill:#a50" x="24" y="18">8</text>
<text style="fill:#a50" x="30" y="18">%</text>
<text style="fill:#555" x="36" y="18">@</text>
<text style="fill:#a50" x="42" y="18">S</text>
<text style="fill:#a50" x="48" y="18">8</text>
<text style="fill:#a50" x="54" y="18">%</text>
<text style="fill:#555" x="60" y="18">@</text>
<text style="fill:#a50" x="66" y="18">S</text>
<text style="fill:#a50" x="72" y="18">8</text>
<text style="fill:#a50" x="78" y="18">%</text>
<text style="fill:#555" x="84" y="18">@</text>
<text style="fill:#a50" x="90" y="18">S</text>
<text style="fill:#a50" x="96" y="18">8</text>
<text style="fill:#aaa" x="108" y="18">S</text>
<text style="fill:#555" x="114" y="18">S</text>
<text style="fill:#555" x="120" y="18">8</text>
<text style="fill:#0a0" x="126" y="18">8</text>
<text style="fill:#555" x="132" y="18">8</text>
<text style="fill:#555" x="138" y="18">t</text>
<text style="fill:#555" x="144" y="18">X</text>
<text style="fill:#000" x="0" y="28">S</text>
<text style="fill:#a50" x="6" y="28">8</text>
<text style="fill:#a50" x="12" y="28">8</text>
<text style="fill:#a50" x="18" y="28">t</text>
<text style="fill:#a50" x="24" y="28">@</text>
<text style="fill:#a50" x="30" y="28">;</text>
<text style="fill:#a50" x="36" y="28">8</text>
<text style="fill:#a50" x="42" y="28">t</text>
<text style="fill:#a50" x="48" y="28">@</text>
<text style="fill:#a50" x="54" y="28">;</text>
<text style="fill:#a50" x="60" y="28">8</text>
<text style="fill:#a50" x="66" y="28">t</text>
<text style="fill:#a50" x="72" y="28">@</text>
<text style="fill:#a50" x="78" y="28">;</text>
<text style="fill:#a50" x="84" y="28">8</text>
<text style="fill:#a50" x="90" y="28">t</text>
<text style="fill:#a50" x="96" y="28">@</text>
<text style="fill:#a50" x="102" y="28">@</text>
<text style="fill:#ff5" x="108" y="28">%</text>
<text style="fill:#aaa" x="114" y="28">8</text>
<text style="fill:#ff5" x="120" y="28">8</text>
<text style="fill:#ff5" x="132" y="28">S</text>
<text style="fill:#a50" x="138" y="28">S</text>
<text style="fill:#a50" x="144" y="28">%</text>
<text style="fill:#555" x="0" y="38">X</text>
<text style="fill:#a00" x="12" y="38">8</text>
<text style="fill:#a50" x="18" y="38">S</text>
<text style="fill:#555" x="24" y="38">8</text>
<text style="fill:#a50" x="30" y="38">X</text>
<text style="fill:#a00" x="36" y="38">8</text>
<text style="fill:#a50" x="42" y="38">S</text>
<text style="fill:#555" x="48" y="38">8</text>
<text style="fill:#a50" x="54" y="38">X</text>
<text style="fill:#a00" x="60" y="38">8</text>
<text style="fill:#a50" x="66" y="38">S</text>
<text style="fill:#555" x="72" y="38">8</text>
<text style="fill:#a50" x="78" y="38">X</text>
<text style="fill:#a00" x="84" y="38">8</text>
<text style="fill:#a50" x="90" y="38">S</text>
<text style="fill:#555" x="96" y="38">8</text>
<text style="fill:#ff5" x="102" y="38">%</text>
<text style="fill:#aaa" x="108" y="38">%</text>
<text style="fill:#555" x="114" y="38">S</text>
<text style="fill:#555" x="120" y="38">8</text>
<text style="fill:#555" x="126" y="38">:</text>
<text style="fill:#555" x="132" y="38">8</text>
<text style="fill:#555" x="138" y="38">;</text>
<text style="fill:#555" x="144" y="38">8</text>
<text style="fill:#00a" x="18" y="48">.</text>
<text style="fill:#00a" x="42" y="48">.</text>
<text style="fill:#00a" x="66" y="48">.</text>
<text style="fill:#00a" x="90" y="48">.</text>
<text style="fill:#555" x="102" y="48">;</text>
<text style="fill:#a50" x="108" y="48">S</text>
<text style="fill:#ff5" x="114" y="48">;</text>
<text style="fill:#0a0" x="120" y="48">8</text>
<text style="fill:#00a" x="138" y="48">.</text>
 </g>
</svg>
